<svg width="480" height="160" viewBox="0 0 480 160" fill="none" xmlns="http://www.w3.org/2000/svg">
<path fill-rule="evenodd" clip-rule="evenodd" d="M130.474 17.6001H97.8952L9.6001 141.804L41.2938 141.804H75.8178L94.7417 115.214H61.0817L130.474 17.6001ZM60.4726 50.2813C67.7751 50.2813 73.695 44.3614 73.695 37.0589C73.695 29.7563 67.7751 23.8364 60.4726 23.8364C53.17 23.8364 47.2501 29.7563 47.2501 37.0589C47.2501 44.3614 53.17 50.2813 60.4726 50.2813ZM101.213 70.0376L84.9407 93.4246L118.911 141.804H151.111L101.213 70.0376Z" fill="#84FFE1"/>
<path d="M447.972 106.041L432.143 84.3495L416.315 106.041H403.261L422.474 79.7117L403.261 53.3827H416.315L432.143 75.0739L447.971 53.3827H461.026L441.813 79.7117L461.026 106.041H447.972Z" fill="#84FFE1"/>
<path d="M210.21 52.7745H199V106.04H238.172L243.381 95.5272H210.21V52.7745Z" fill="#84FFE1"/>
<path d="M249.859 53.3436C249.777 53.8012 249.777 54.3498 249.777 55.4471C249.777 56.5443 249.777 57.093 249.859 57.5506C250.245 59.6876 251.917 61.3602 254.054 61.7455C254.512 61.828 255.061 61.828 256.158 61.828C257.255 61.828 257.804 61.828 258.261 61.7455C260.398 61.3602 262.071 59.6876 262.456 57.5506C262.539 57.093 262.539 56.5443 262.539 55.4471C262.539 54.3498 262.539 53.8012 262.456 53.3436C262.071 51.2065 260.398 49.5339 258.261 49.1487C257.804 49.0662 257.255 49.0662 256.158 49.0662C255.061 49.0662 254.512 49.0662 254.054 49.1487C251.917 49.5339 250.245 51.2065 249.859 53.3436Z" fill="#84FFE1"/>
<path d="M261.768 67.0222H250.558V106.04H261.768V67.0222Z" fill="#84FFE1"/>
<path d="M383.179 53.3436C383.096 53.8012 383.096 54.3498 383.096 55.4471C383.096 56.5443 383.096 57.093 383.179 57.5506C383.564 59.6876 385.237 61.3602 387.374 61.7455C387.831 61.828 388.38 61.828 389.477 61.828C390.574 61.828 391.123 61.828 391.581 61.7455C393.718 61.3602 395.39 59.6876 395.775 57.5506C395.858 57.093 395.858 56.5443 395.858 55.4471C395.858 54.3498 395.858 53.8012 395.775 53.3436C395.39 51.2065 393.718 49.5339 391.581 49.1487C391.123 49.0662 390.574 49.0662 389.477 49.0662C388.38 49.0662 387.831 49.0662 387.374 49.1487C385.237 49.5339 383.564 51.2065 383.179 53.3436Z" fill="#84FFE1"/>
<path d="M395.087 67.0222H383.877V106.04H395.087V67.0222Z" fill="#84FFE1"/>
<path fill-rule="evenodd" clip-rule="evenodd" d="M284.084 66.7581C276.572 66.7581 270.484 72.847 270.484 80.3581V92.5169C270.484 100.028 276.572 106.117 284.084 106.117H307.823V124.934L319.034 121.51V84.3704H319.029V80.3581C319.029 72.847 312.94 66.7581 305.429 66.7581H284.084ZM307.829 84.3704V80.3581C307.829 79.0326 306.754 77.9581 305.429 77.9581H284.084C282.758 77.9581 281.684 79.0326 281.684 80.3581V92.5169C281.684 93.8424 282.758 94.9169 284.084 94.9169H307.823V84.3704H307.829Z" fill="#84FFE1"/>
<path fill-rule="evenodd" clip-rule="evenodd" d="M340.387 91.3154V66.8527H329.187V91.3154C329.187 99.4892 335.813 106.115 343.987 106.115L372.944 106.115V66.8527H361.744V94.9154H343.987C341.999 94.9154 340.387 93.3036 340.387 91.3154Z" fill="#84FFE1"/>
</svg>
