<svg width="168" height="232" viewBox="0 0 168 232" fill="none" xmlns="http://www.w3.org/2000/svg">
<path fill-rule="evenodd" clip-rule="evenodd" d="M134.474 17.6H101.895L13.6 141.804L45.2937 141.804H79.8177L98.7416 115.214H65.0816L134.474 17.6ZM64.4724 50.2813C71.775 50.2813 77.6949 44.3614 77.6949 37.0588C77.6949 29.7562 71.775 23.8363 64.4724 23.8363C57.1699 23.8363 51.25 29.7562 51.25 37.0588C51.25 44.3614 57.1699 50.2813 64.4724 50.2813ZM105.213 70.0375L88.9406 93.4245L122.911 141.804H155.111L105.213 70.0375Z" fill="#84FFE1"/>
<path d="M154.775 219.424L145.278 206.41L135.782 219.424H127.949L139.476 203.627L127.949 187.83H135.782L145.278 200.844L154.775 187.83H162.608L151.08 203.627L162.608 219.424H154.775Z" fill="#84FFE1"/>
<path d="M12.1185 187.465H5.39233V219.424H28.8956L32.0211 213.116H12.1185V187.465Z" fill="#84FFE1"/>
<path d="M35.908 187.806C35.8585 188.081 35.8585 188.41 35.8585 189.068C35.8585 189.727 35.8585 190.056 35.908 190.33C36.1391 191.613 37.1427 192.616 38.4249 192.847C38.6995 192.897 39.0286 192.897 39.687 192.897C40.3454 192.897 40.6745 192.897 40.9491 192.847C42.2313 192.616 43.2349 191.613 43.4661 190.33C43.5156 190.056 43.5156 189.727 43.5156 189.068C43.5156 188.41 43.5156 188.081 43.4661 187.806C43.2349 186.524 42.2313 185.52 40.9491 185.289C40.6745 185.24 40.3454 185.24 39.687 185.24C39.0286 185.24 38.6995 185.24 38.4249 185.289C37.1427 185.52 36.1391 186.524 35.908 187.806Z" fill="#84FFE1"/>
<path d="M43.0531 196.013H36.327V219.424H43.0531V196.013Z" fill="#84FFE1"/>
<path d="M115.9 187.806C115.85 188.081 115.85 188.41 115.85 189.068C115.85 189.727 115.85 190.056 115.9 190.33C116.131 191.613 117.134 192.616 118.416 192.847C118.691 192.897 119.02 192.897 119.679 192.897C120.337 192.897 120.666 192.897 120.941 192.847C122.223 192.616 123.226 191.613 123.458 190.33C123.507 190.056 123.507 189.727 123.507 189.068C123.507 188.41 123.507 188.081 123.458 187.806C123.226 186.524 122.223 185.52 120.941 185.289C120.666 185.24 120.337 185.24 119.679 185.24C119.02 185.24 118.691 185.24 118.416 185.289C117.134 185.52 116.131 186.524 115.9 187.806Z" fill="#84FFE1"/>
<path d="M123.045 196.013H116.319V219.424H123.045V196.013Z" fill="#84FFE1"/>
<path fill-rule="evenodd" clip-rule="evenodd" d="M56.4425 195.855C51.9358 195.855 48.2825 199.508 48.2825 204.015V211.31C48.2825 215.817 51.9358 219.47 56.4424 219.47H70.6864V230.76L77.4126 228.706V206.422H77.4095V204.015C77.4095 199.508 73.7561 195.855 69.2495 195.855H56.4425ZM70.6895 206.422V204.015C70.6895 203.22 70.0448 202.575 69.2495 202.575H56.4425C55.6472 202.575 55.0025 203.22 55.0025 204.015V211.31C55.0025 212.105 55.6472 212.75 56.4424 212.75H70.6864V206.422H70.6895Z" fill="#84FFE1"/>
<path fill-rule="evenodd" clip-rule="evenodd" d="M90.2246 210.589V195.912H83.5046V210.589C83.5046 215.494 87.4803 219.469 92.3846 219.469L109.759 219.469V195.912H103.039V212.749H92.3846C91.1917 212.749 90.2246 211.782 90.2246 210.589Z" fill="#84FFE1"/>
</svg>
